<!-- nika icon library · feature/permits · glyph: SuperNovae house set · security/shield-access · generated by design/build.mjs -->
<svg xmlns="http://www.w3.org/2000/svg" viewBox="0 0 24 24" fill="none" data-nika="feature/permits" aria-hidden="true"><path d="M5.79754 5.21356L10.7975 3.02606C11.5641 2.69069 12.4359 2.69069 13.2025 3.02606L18.2025 5.21356C19.2944 5.6913 20 6.77014 20 7.96204V13C20 17.4183 16.4183 21 12 21C7.58172 21 4 17.4183 4 13V7.96204C4 6.77014 4.70558 5.6913 5.79754 5.21356Z" stroke="currentColor" stroke-width="2" stroke-linecap="round" stroke-linejoin="round"/><circle cx="11.9992" cy="15.6999" r="1.3" fill="currentColor"/><path d="M11.1 12.3C11.1149 12.5235 11.2228 12.7379 11.3913 12.8959C11.5604 13.0539 11.7762 13.1427 12 13.1427C12.2238 13.1427 12.4396 13.0539 12.6087 12.8959C12.7772 12.7379 12.8851 12.5235 12.9 12.3C12.9042 12.2367 12.9083 12.1733 12.9125 12.11C12.9875 10.97 13.0625 9.83 13.1375 8.69C13.1417 8.62667 13.1458 8.56333 13.15 8.5C13.1703 8.195 13.067 7.90249 12.851 7.68683C12.6357 7.47116 12.3253 7.35 12 7.35C11.6747 7.35 11.3643 7.47116 11.149 7.68683C10.933 7.90249 10.8297 8.195 10.85 8.5C10.8542 8.56333 10.8583 8.62667 10.8625 8.69C10.9375 9.83 11.0125 10.97 11.0875 12.11C11.0917 12.1733 11.0958 12.2367 11.1 12.3Z" fill="currentColor"/></svg>
